<svg id="Layer_1" data-name="Layer 1" xmlns="http://www.w3.org/2000/svg" viewBox="0 0 3432.33 647.61"><defs><style>.cls-1,.cls-3{fill:#d31920;}.cls-1,.cls-4{fill-rule:evenodd;}.cls-2,.cls-4{fill:#fff;}</style></defs><path id="D_mine" data-name="D mine" class="cls-1" d="M2060.29,434c-3.62-56.46-24.69-92.2-29.1-99.39-5.44-8.93-15.52-25.24-33.51-40.94-40.58-35.5-90.88-41.54-113.7-42.75H1626.34L1563.78,382h34.6l-8,16.42L1417.3,754c-4,6.4-8.69,9.29-13.52,9.54h-22.16l-48.25,101.07h427.19c11.9-3.92,22.16-7.79,30.68-11.23,2.17-.9,4.28-1.75,6.34-2.59,1.81-.73,3.68-1.57,5.49-2.42,1.57-.66,3-1.27,4.35-1.93,3-1.33,5.37-2.42,7.12-3.32,4.47-2.12,9.12-4.35,14.07-6.95,4.47-2.29,8.76-4.53,11.23-5.91a265.48,265.48,0,0,0,28.86-18.78s14.62-10.69,27.6-22.52C1916.77,770.34,2071,601.15,2060.29,434Zm-195.45,114.6C1786.16,728,1715.4,760.62,1610.46,760.62h-19.69Q1679.45,569.33,1768,378.05h28.68C1874.32,377.93,1913.39,437.94,1864.84,548.56Zm-544.57,343.5h261.08q12,.11,23.91-.24h.49q4.89-.09,10.5-.36c18.06-.9,35.57-2.66,52.72-5.07a9.31,9.31,0,0,0,1.26-.24c1.76-.24,3.51-.55,5.26-.79,16.12-2.59,31.15-5.73,45-9.17,1.39-.37,2.78-.67,4.17-1H1328.36Z" transform="translate(-4.94 -247.9)"/><g id="Car"><path id="bottom_door_piece" data-name="bottom door piece" class="cls-2" d="M943.23,675.77c-1.78,6.1-3.63,12.31-5.68,18.59a613.26,613.26,0,0,1-40.11,95.95q-90.54.63-182.37,2.29Q563.39,795.23,415,800.39v-.78q147.78-5.9,299-9.12,82.82-1.82,164.72-2.78c3.3-.06,5-.06,5-.06h.81c.11-.06.22-.06.33-.12l.49-.3c.21-.18.54-.42.86-.73a20.78,20.78,0,0,0,2.33-2.41,30.18,30.18,0,0,0,4.22-6,16.86,16.86,0,0,0,.7-1.57c1-2.23,2.33-5.31,3.9-9.12s3.85-9.6,7.85-21.07c2.06-5.86,4.82-13.83,8.12-24.33,3.47-11.35,7.69-26,11.86-43.6,1.57-6.76-1.63-9.6-2.55-10.08a12.48,12.48,0,0,0-1.57-.6,21,21,0,0,0-2.33-.37l-11.64-.64q-12.54-.66-24.94-1.2l.08,1.55q13.82.52,28,1.43c2.77.17,5.54.36,8.3.55a10.68,10.68,0,0,0,1.19.19,11.64,11.64,0,0,1,1.89.72c.71.3,3.25,2.48,1.9,8.27-4.28,18.18-8.5,32.67-11.86,43.17-1.95,6.16-4,12.14-8.12,24.16-3.14,9-5,14.37-7.74,20.95-1.84,4.53-3.46,8.21-4.6,10.75a34.46,34.46,0,0,1-3.57,5.49,31,31,0,0,1-2.11,2.42,5.3,5.3,0,0,1-1.14.72,18.61,18.61,0,0,1-2.33.6,23.05,23.05,0,0,1-3.3.31v-2.48a11.69,11.69,0,0,0,3.14-.66c5.25-2.12,7.69-8.28,8.66-10.81,4.17-10.87,6.28-16.24,15.48-44.14,0,0,7.2-21.74,14.73-49.81.11-.37.21-.79.32-1.15a8.39,8.39,0,0,0,.22-1.27,5.14,5.14,0,0,0,.05-1.33,7.47,7.47,0,0,0-.54-2.47c-.24-.25-1.28-1-1.28-1a6.37,6.37,0,0,0-2.24-.68c-1.53-.15-15.68-.54-35-.91.05,6,.16,14.31.16,24.21.06,11.05.06,26-.38,43.3-.65,21.79-1.89,42.38-2.22,42.38s.92-26.87,1.09-64.72c0-17.57-.11-34.78-.44-51.69,19.22.48,38.38.91,57.6,1.33a7.6,7.6,0,0,1,3.84,2.72C944.42,671,943.34,675.34,943.23,675.77Z" transform="translate(-4.94 -247.9)"/><path id="back_wheel" data-name="back wheel" class="cls-2" d="M943.7,793.5c1.51-10,8.65-50.27,41.77-79.53a109.36,109.36,0,0,1,72.89-27.4,102.73,102.73,0,0,1,51,12.81c30.93,17.27,44.94,46,49.37,55.43a145,145,0,0,1,11.88,38.86h-.75a180.06,180.06,0,0,0-7.53-23.62,161.18,161.18,0,0,0-9.34-19.7,137.75,137.75,0,0,0-9.43-14.49,121.39,121.39,0,0,0-16.79-18.33,106.77,106.77,0,0,0-24.61-16.17,104.7,104.7,0,0,0-60.36-8.47s-26.33,4.06-48.49,20a117.46,117.46,0,0,0-11.66,9.7,115,115,0,0,0-8.5,9.25A133.6,133.6,0,0,0,957,757.78a163.58,163.58,0,0,0-12.43,35.73Z" transform="translate(-4.94 -247.9)"/><path id="front_wheel" data-name="front wheel" class="cls-2" d="M181.68,797.71c1.51-10,8.65-50.27,41.77-79.53a109.36,109.36,0,0,1,72.89-27.4,102.73,102.73,0,0,1,51,12.81c30.93,17.27,44.94,46,49.37,55.43a144.91,144.91,0,0,1,11.88,38.86h-.75a180.06,180.06,0,0,0-7.53-23.62,161.18,161.18,0,0,0-9.34-19.7,137.75,137.75,0,0,0-9.43-14.49,121.39,121.39,0,0,0-16.79-18.33,106.77,106.77,0,0,0-24.61-16.17,104.7,104.7,0,0,0-60.36-8.47s-26.33,4.06-48.49,20a117.46,117.46,0,0,0-11.66,9.7,113.12,113.12,0,0,0-8.5,9.25A133.24,133.24,0,0,0,195,762a163.66,163.66,0,0,0-12.43,35.72Z" transform="translate(-4.94 -247.9)"/><path id="door_vent" data-name="door vent" class="cls-2" d="M921.31,676.49a8.39,8.39,0,0,1-.22,1.27c-.11.36-.21.78-.32,1.15a5.62,5.62,0,0,0-2,0,11.48,11.48,0,0,0-2.32.72,6.71,6.71,0,0,0-.6.73s-.22.48-.43,1c-.54,1.51-14.24,53.68-20.08,72.46-1.09,3.5-4.77,15.09-5.63,17.69.92-3.62,6.17-23.79,11.53-44.44,5.9-22.76,12-46.13,12.61-48.49a10.08,10.08,0,0,1,3.79-1.87A11.86,11.86,0,0,1,921.31,676.49Z" transform="translate(-4.94 -247.9)"/><path class="cls-2" d="M1301.26,669.73a187.86,187.86,0,0,1-.65,22,166,166,0,0,0-10.12-60.93c-.92-2.47-1.9-4.83-2.87-7.12a20.36,20.36,0,0,0-4.17-2.78,16.62,16.62,0,0,0-11.1-.78,8.62,8.62,0,0,0-3.35,2.29,9.39,9.39,0,0,0-2.38,4.83c-1.9,15.34-3.74,30.67-5.63,46-41.31-.9-104.1-2.41-181-4.41-140.42-3.62-152.22-4.34-204-5.25q-20.87-.36-40.6-.54a10,10,0,0,0,5-6.89,11.34,11.34,0,0,0-1.44-7.42c-.11-.18-.2-.3-.24-.37H803.52a7.8,7.8,0,0,0-3.85,3c-2,3-1.78,7.55.49,11.35-80.06-.48-143.56.49-188.92,1.21-75.3,1.21-159.8,3.56-252.14,7.67-11.75-6.34-40.55-19.62-77.41-14.07a125.92,125.92,0,0,0-53.86,21.92c-7,.36-55.6,3.2-96.2,7.91-17.64,2.05-35.24,4.59-35.24,4.59-4.54.6-9.09,1.27-13.69,2-5,.73-10,1.51-15,2.3a615,615,0,0,1,106.8-36.87c36.49-8.93,67.23-12.41,127.21-19,30.6-3.36,72.41-7.49,122.56-11,3.46.73,7,1.39,10.66,1.94a261.75,261.75,0,0,0,33.35,3.38c5.57,1.69,11.15,3.32,16.67,5,40-3.08,99.88-7.43,172.84-12,85.05-5.37,112.6-5.85,156.12-8.45,18.62-1.15,31.61-2.11,50.72-3.56,75-5.56,117.58-10,164.18-13,23-1.51,34.54-2.24,35.46-2.24,15.48-.36,23.33-.78,36.7-2.23,11.69-1.27,20.46-2.9,23.39-3.44,4.44-.85,8.17-1.63,11-2.24,17.75-.18,32.42-.6,42.81-1,54-1.94,72.87-5.14,81-6.71a328.64,328.64,0,0,0,33-7.91c-.55,14.92-1,29.77-1.57,44.62,1.57,4.11,3.14,8.52,4.6,13.29a177.43,177.43,0,0,1,5.41,23.37C1300.93,661.76,1301.15,665.62,1301.26,669.73Z" transform="translate(-4.94 -247.9)"/><path id="rear" class="cls-2" d="M1249.52,703.83l6-30.71,5.49.13q-1.32,10.37-2.63,20.72l50.2,2a51.84,51.84,0,0,1,8.21,1,53.09,53.09,0,0,1,7.89,2.26,33,33,0,0,1,6.36,7.35,36.62,36.62,0,0,1,4.75,11.33,76.32,76.32,0,0,1,.33,22.55c-.94,8.56-2.36,18-4.51,28.19a283.15,283.15,0,0,1-7.42,28c.64-2.18,3.59-15.48,5.68-27.14.91-5.09,1.65-9.88,2-13.28.51-5.55.78-10.85.87-15.88.31-4.41.35-8.07.33-10.72,0-5-.08-7.58-.85-10.7a28.57,28.57,0,0,0-3.46-8.27c-7.56.82-15.64,1.39-24.19,1.6a292.29,292.29,0,0,1-31.92-1,63.33,63.33,0,0,1-13.59-3.2A66.3,66.3,0,0,1,1249.52,703.83Z" transform="translate(-4.94 -247.9)"/><path id="rear_bottom" data-name="rear bottom" class="cls-2" d="M1236.07,791.38v11.51h86.24c2.74-8.22,5.36-17.26,7.67-27.08,1.35-5.75,2.49-11.32,3.45-16.66l-.78-18c-.19,2.09-.4,4.21-.64,6.34a293.28,293.28,0,0,1-9,46.21Z" transform="translate(-4.94 -247.9)"/><path class="cls-2" d="M67.71,696.18A43.11,43.11,0,0,1,72.64,686a32.5,32.5,0,0,1,6.94-7.93c35.33-27.76,86.28-41.21,86.28-41.21,15.72-4.15,36.2-8.95,60.48-13.06,21.5-4.16,44.35-7.79,68.46-10.58a907.61,907.61,0,0,1,102.77-6,108.14,108.14,0,0,0,11.1,13.37,101.24,101.24,0,0,0,7.53,7c-12.45.8-40.33,2.66-67.9,5-15.52,1.31-26.11,2.36-30.41,2.79-7.92.8-15.32,1.6-22.74,2.44-31.67,3.59-47.52,5.16-67.58,8.39-14.21,2.28-33.82,5.82-57.22,11.3a408.81,408.81,0,0,0-82.78,28.91C79.21,690.24,72.38,693.72,67.71,696.18Z" transform="translate(-4.94 -247.9)"/><path class="cls-2" d="M106.75,684.34l-3.66-10.85A102.7,102.7,0,0,0,81.48,684.9a107.65,107.65,0,0,0-13.77,11.28L69.2,696Z" transform="translate(-4.94 -247.9)"/><path class="cls-2" d="M413.61,616.17Q461.85,595.28,511,573q62.6-28.37,122.76-57.19a7.71,7.71,0,0,1,3.65,1.74,9.07,9.07,0,0,1,2.55,3.56c-8.32,4.39-18.73,10-30.61,16.81,0,0-17.7,10.11-36.54,21.89C529.93,586.63,472,629.5,467.37,633c-6.73-.15-14-.61-21.8-1.54-7.42-.89-14.32-2.09-20.66-3.46-1.7-1.53-3.47-3.21-5.26-5.06C417.42,620.61,415.41,618.35,413.61,616.17Z" transform="translate(-4.94 -247.9)"/><path class="cls-2" d="M975,606.62c-.85-8.62-4.9-39.86-28.45-60.68a69.78,69.78,0,0,0-22.07-13.22,523.91,523.91,0,0,0-88.12-18.1,518,518,0,0,0-95.27-2.29,307.51,307.51,0,0,0-45.36,6.41,311.16,311.16,0,0,0-38.33,11c-23.77,11.79-48.9,25.52-75,41.52A979.54,979.54,0,0,0,485,639.61l-16.68-4.94c13.48-9.93,30.06-21.84,49.25-35,4.08-2.8,17.83-12.19,33.81-22.59,30.8-20.06,46-30.38,60.25-38.54,22.64-13,34-19.51,48.27-24.57,24.93-8.83,46.16-10.36,81.35-13.21,45.6-3.7,80.62-.65,104.17,1.71A626.94,626.94,0,0,1,926,515.94q16.66,4.68,33.75,10.19a938.41,938.41,0,0,1,160.62,69.26A325.65,325.65,0,0,1,975,606.62Z" transform="translate(-4.94 -247.9)"/><path class="cls-2" d="M640.08,513a10.83,10.83,0,0,1,2.78,1.19,11.73,11.73,0,0,1,3.55,3.39c4.52-1.89,11-4.42,19-6.87a212.9,212.9,0,0,1,25.71-6.11c39.37-6.94,82.29-7.38,82.29-7.38A632.87,632.87,0,0,1,850,501.31,564.61,564.61,0,0,1,926.2,514.6c23.95,5.94,41.6,12,57,17.38,33,11.46,57.32,22.36,72.52,29.21,18.91,8.52,41.88,19.59,67.65,33.64l12-2.38a1000.5,1000.5,0,0,0-174.76-72.76q-21.66-6.68-42.66-12.08a13.27,13.27,0,0,1,.7-3.19,12.45,12.45,0,0,1,2-3.6,808.13,808.13,0,0,0-104.1-9.14c-37-.83-61.92,1.19-94.62,3.84a312.29,312.29,0,0,0-31.1,3.93A255.67,255.67,0,0,0,664,505.11,237.7,237.7,0,0,0,640.08,513Z" transform="translate(-4.94 -247.9)"/><path class="cls-2" d="M923.72,501.76l-1.45,4.76q21.69,5.66,44.15,12.63a1017.07,1017.07,0,0,1,172.15,71.71,848,848,0,0,0-153.66-70.74C963.83,512.89,943.38,506.83,923.72,501.76Z" transform="translate(-4.94 -247.9)"/><path class="cls-2" d="M489.65,637.84l51.14-3.61q-18.57-1.54-19-5.53a3.12,3.12,0,0,1,1.17-2.41,52,52,0,0,1,7.48-4,49,49,0,0,1,12.15-3.52,63.35,63.35,0,0,1,6.14-12.55c3-4.7,6.33-10,12.5-13.26a24.1,24.1,0,0,1,7.38-2.51l1.62-10.94Z" transform="translate(-4.94 -247.9)"/><path class="cls-2" d="M563,614.85a74.9,74.9,0,0,1-8.47,2.81c-8.78,2.54-11.09,2.39-17.73,4.42-5.18,1.58-13.13,4-13,6.22s8.66,3.49,12.07,4a55.48,55.48,0,0,0,7.56.64c3.72,0,6.92,0,9.46-.06,15.22-.2,19.33-.76,23.58-3.29a24.44,24.44,0,0,0,5.58-4.62c0-4.54-.14-8.53-.27-11.85-.33-9.06-.74-12.27-2.61-15.47a15.88,15.88,0,0,0-3.33-4,16.63,16.63,0,0,0-7.92-1.31c-9.87.88-18.72,11.32-23,26.11,1.92-.22,4.8-.61,8.28-1.3C558.94,616,563,614.73,563,614.85Z" transform="translate(-4.94 -247.9)"/><path class="cls-2" d="M148.11,685.53q7.54,29.4,15.08,58.8c-24.54-.39-50-.19-76.31.74q-25.77.91-50.33,2.64c-.44,1-1.08,2.52-1.72,4.41-1.71,5-2.59,10.15-3,21-.19,5.11-.29,11.62,0,19.22-2.44-22.73-.41-39.7,1.89-44.32a39.16,39.16,0,0,1,4.62-7.1,31.59,31.59,0,0,1,3.55-3.55,36.19,36.19,0,0,1,5.8-2.57,34.9,34.9,0,0,1,8.92-1.74c5.49-.4,19.78-1.15,39-1.71,8.79-.3,15.89-.39,20.68-.42,8.16-.05,12,.06,19-.16,7.12-.22,12.89-.64,16.52-1-2.07-14.57-2.92-21.2-3.29-24.52A111.58,111.58,0,0,0,146.94,694c-.19-1-.36-1.8-.47-2.29L145,688.9a8.62,8.62,0,0,0-1.64-1.58,8.19,8.19,0,0,0-2-1.09Z" transform="translate(-4.94 -247.9)"/><path class="cls-2" d="M65.52,701.93c-2.28,2.78-4.6,5.86-6.9,9.26a133.1,133.1,0,0,0-13,24.43l11.72-2.56a59.74,59.74,0,0,1,9.33-23.89,52.41,52.41,0,0,1,6.09-7.38Z" transform="translate(-4.94 -247.9)"/><path class="cls-2" d="M862.94,615.72q1.86-27.72,4.14-56.06,1.56-19.36,3.28-38.4a7.56,7.56,0,0,0-1.29,1.55,8.25,8.25,0,0,0-1.08,2.78q-2.07,15.64-4,31.58-3.65,29.91-6.6,59Z" transform="translate(-4.94 -247.9)"/><path class="cls-2" d="M226.09,693.11" transform="translate(-4.94 -247.9)"/><path class="cls-2" d="M372,693.11c-11-7.28-37.23-22.5-73.34-22.38-35.63.11-61.55,15.1-72.52,22.38,14.54-6.89,48.36-20.29,91.1-12.94,55.6,9.56,89.23,47.87,99.06,60q-2.87-8.48-6.2-17.26c-5.31-14-10.94-26.92-16.64-38.79a120.93,120.93,0,0,1,14.35-7.88,116.63,116.63,0,0,1,21.59-7.51l-70.25,2.84a41.56,41.56,0,0,1,6.76,7.86A45.76,45.76,0,0,1,372,693.11Z" transform="translate(-4.94 -247.9)"/><path class="cls-2" d="M1118.35,659.7a320.1,320.1,0,0,0-60.75,6.62c-35.18,7.26-63.09,19.17-62.69,20.83.5,2.08,43.53-21.12,91.09-12.94,55.6,9.56,89.24,47.87,99.06,59.95q-2.86-8.48-6.19-17.26c-5.31-14-10.94-26.92-16.65-38.79a37.26,37.26,0,0,1,16-6.81c10.06-1.55,18.09,2,20.38-2,.7-1.23.88-3.23-.45-6.62l-70.26,2.84c1-8.73.08-15.14-2-15.72S1120.93,653.66,1118.35,659.7Z" transform="translate(-4.94 -247.9)"/><path class="cls-2" d="M838.4,656.06a9.07,9.07,0,0,1-1.73,3.78,8,8,0,0,1-1.5,1.49l-33.64-.1a7.83,7.83,0,0,1-.65-1.2,8.39,8.39,0,0,1-.7-2.85,7.85,7.85,0,0,1,1.23-4.87,6.39,6.39,0,0,1,3.3-2.52l32.54.09A9.29,9.29,0,0,1,838.4,656.06Z" transform="translate(-4.94 -247.9)"/><path class="cls-2" d="M800.16,662.66" transform="translate(-4.94 -247.9)"/><path id="front_wheel-2" data-name="front wheel" class="cls-2" d="M386,787.56c-1.19,7.21-6.79,36.07-33.34,57.18-24.38,19.38-50.91,19.79-58.56,19.92a90.48,90.48,0,0,1-41.11-9c-24.94-12.26-36.31-32.83-39.91-39.55a95.49,95.49,0,0,1-9.69-27.82h.6a117.76,117.76,0,0,0,6.14,16.91,112.3,112.3,0,0,0,7.58,14.08,100.61,100.61,0,0,0,7.64,10.36,91.92,91.92,0,0,0,13.57,13.07,87.51,87.51,0,0,0,19.86,11.5A92.86,92.86,0,0,0,294,861a93.82,93.82,0,0,0,13.31-1s21.17-3,38.95-14.54a91,91,0,0,0,9.34-7,82.85,82.85,0,0,0,6.82-6.67,95.3,95.3,0,0,0,12.91-18.64,109.3,109.3,0,0,0,9.88-25.66Z" transform="translate(-4.94 -247.9)"/><path id="front_wheel-3" data-name="front wheel" class="cls-2" d="M1148.47,787.56c-1.18,7.21-6.79,36.07-33.34,57.18-24.38,19.38-50.91,19.79-58.55,19.92a90.44,90.44,0,0,1-41.11-9c-25-12.26-36.32-32.83-39.91-39.55a95.57,95.57,0,0,1-9.7-27.82h.61a117.76,117.76,0,0,0,6.14,16.91,111.42,111.42,0,0,0,7.57,14.08,100.16,100.16,0,0,0,7.65,10.36,91.92,91.92,0,0,0,13.57,13.07,87.28,87.28,0,0,0,19.86,11.5,92.79,92.79,0,0,0,35.28,6.81,94.1,94.1,0,0,0,13.32-1s21.16-3,38.94-14.54a91.68,91.68,0,0,0,9.35-7,83.37,83.37,0,0,0,6.81-6.67,94.67,94.67,0,0,0,12.92-18.64,109.74,109.74,0,0,0,9.88-25.66Z" transform="translate(-4.94 -247.9)"/></g><path class="cls-2" d="M212.34,251.47h112q43.47,0,60,16.08t3,45.59q-7,15.38-22,30.84t-45.49,26.87Q289.22,382.27,251,382.27H226.26l-39.39,85.91H113Zm54.73,41.79-21.3,46.45h16.16q17.94,0,31.56-6.45t18.95-18.1q5.06-11-.64-16.47t-22.07-5.43Z" transform="translate(-4.94 -247.9)"/><path class="cls-2" d="M429.18,251.47H542q38.3,0,55.79,13.67t6,38.84q-9.46,20.65-33.14,35.18t-61.53,22.92q40.44,4.65,35.62,37.28l-10.15,68.82H454.4l15.76-60Q474,393,469.87,386t-19.2-7h-6.75L403,468.18H329.82Zm53.91,42.1L461.79,340h16q17.11,0,29.33-7t17.13-17.71q5-10.87-.4-16.32t-21.39-5.43Z" transform="translate(-4.94 -247.9)"/><path class="cls-2" d="M744.52,247.9q57,0,76.28,29.67t-4.29,81.09q-23.64,51.57-70.83,82.25t-99.89,30.68q-54.75,0-70.1-31.84t6.43-79.38a198.14,198.14,0,0,1,41.74-59.11,186.68,186.68,0,0,1,59.24-39.77Q715.68,247.9,744.52,247.9Zm-13,45.67q-22.08,0-41.84,17.55t-33.73,48Q641.74,390,645,407.67t23.35,17.63q19.82,0,40.09-18.17t34.16-48.47q14.39-31.38,10.07-48.24T731.47,293.57Z" transform="translate(-4.94 -247.9)"/><path class="cls-2" d="M906.78,251.47h74.34L906.62,414q-13.25,28.89-35.83,43.27t-58.62,14.36a178.14,178.14,0,0,1-36.06-3.41l19.94-43.5a22.87,22.87,0,0,0,11.66,3.57,26.71,26.71,0,0,0,15.62-4.58q6.6-4.57,10.8-13.75Z" transform="translate(-4.94 -247.9)"/><path class="cls-2" d="M1015.49,251.47h179.09l-20,43.65H1068.69L1050.38,335h98.67l-19.37,42.26H1031l-21.37,46.6h105.88l-20.3,44.28H916.13Z" transform="translate(-4.94 -247.9)"/><path class="cls-2" d="M1279,462.74q-31.32,8.85-55.87,8.85-53,0-69.65-31.84t5-79.23q13.4-29.2,38.76-55.3t60.69-41.71q35.31-15.62,71.58-15.61a130.38,130.38,0,0,1,44.35,7.92l-22.72,49.55q-12.24-12.11-32.74-12.11-25.45,0-48.33,17.71t-38.26,51.26q-13.17,28.74-6.36,46.06t31.14,17.32q17.79,0,44.77-11.65Z" transform="translate(-4.94 -247.9)"/><path class="cls-2" d="M1389.69,251.47h198.47l-20.16,44h-63.75l-79.2,172.75h-73.21L1431,295.43h-61.5Z" transform="translate(-4.94 -247.9)"/><path class="cls-3" d="M2181.29,719l20.05-43.65H2022.25l-86.82,189.29h179.08l7.73-16.84H2016.4l21.37-46.62h98.66l19.38-42.2h-98.66l18.3-40Zm-258.42,173H2102l7.73-16.9H1930.59Z" transform="translate(-4.94 -247.9)"/><path class="cls-3" d="M2213.18,675.36l-20.17,44h61.47l-66.6,145.27h73.18l66.66-145.27h63.76l20.17-44Zm-37.86,216.7h73.18l7.73-16.9h-73.18Z" transform="translate(-4.94 -247.9)"/><path class="cls-3" d="M2293.6,875.16l-14.13,16.9h75.06l12.25-16.9Zm167.32-199.8-158.5,189.29h72l11.29-15.58H2446l-3.08,15.58h76.38l14.5-189.29Zm-7.19,134.89h-39.85l54.89-75.66Zm-16.3,81.81h79.76l1.27-16.9h-77.65Z" transform="translate(-4.94 -247.9)"/><path class="cls-3" d="M2627,675.36,2540.2,864.65h73.9l86.83-189.29Zm-99.38,216.7h73.9l7.73-16.9h-73.9Z" transform="translate(-4.94 -247.9)"/><path class="cls-3" d="M2727.19,847.81l79-172.45h-73.42L2646,864.65h174.38l7.73-16.84Zm-93.77,44.25H2807.8l7.73-16.9H2641.15Z" transform="translate(-4.94 -247.9)"/><path class="cls-3" d="M2923.07,675.36,2836.3,864.65h73.91L2997,675.36Zm-99.33,216.7h73.91l7.73-16.9h-73.91Z" transform="translate(-4.94 -247.9)"/><path class="cls-3" d="M2935.69,875.16l-7.73,16.9h70.28l7.73-16.9Zm228.54-199.8-38.95,85-15,36.65h-3.87c1.15-14.92,1.09-32.61-.24-53l-4.35-68.71h-74.56l-86.77,189.29h70.28L3037.25,807l15-36.71h4q-1.82,22.54.18,53.13l2.6,41.24h88.63l86.83-189.29Zm-103.37,216.7h74.32l7.73-16.9h-83.14Z" transform="translate(-4.94 -247.9)"/><path class="cls-3" d="M3316.45,735.38a85.18,85.18,0,0,1,54.46-18.84c15.82,0,30.55,5.37,44.32,16.06l22-48.06c-15.76-8.46-35.93-12.74-60.38-12.74q-55,0-101.5,31T3205.83,784c-9,19.69-13.95,38.41-14.73,56.16-.43,9.3.84,17.45,3.74,24.51h171.54l40.88-89.06h-92.38l-17.88,39h24.1l-6.16,13.46c-3.75,8.09-8,14.19-12.74,18.18a24.64,24.64,0,0,1-16.25,6.09c-11.77,0-18.35-5.91-19.8-17.81s2.48-27.83,11.71-47.88Q3292.73,754.12,3316.45,735.38ZM3206.68,881.14q16.76,14.4,43.29,14.37a88.77,88.77,0,0,0,28.68-5,141,141,0,0,0,29.95-14.8l9.66,16.3h35.56l7.73-16.9H3200.94A41.55,41.55,0,0,0,3206.68,881.14Z" transform="translate(-4.94 -247.9)"/><path id="line_under_car" data-name="line under car" class="cls-4" d="M15,864.65H1333.37l-5,10.51H4.94C8.26,871.66,11.58,868.15,15,864.65Z" transform="translate(-4.94 -247.9)"/></svg>